<svg xmlns="http://www.w3.org/2000/svg" width="157.999" height="158" viewBox="0 0 157.999 158">
  <title>shape</title>
  <rect x="63.2" y="63.307" width="31.6" height="31.386" fill="none"/>
  <path d="M41.444,136.283A15.746,15.746,0,0,0,52.6,163.093a15.921,15.921,0,0,0,15.8-15.746V131.6H52.6A15.148,15.148,0,0,0,41.444,136.283Z" transform="translate(-21 -21)" fill="none"/>
  <path d="M147.4,131.6H131.6v15.747a15.047,15.047,0,0,0,4.7,11.118,15.631,15.631,0,0,0,22.205,0,15.568,15.568,0,0,0,.055-22.236A15.24,15.24,0,0,0,147.4,131.6Z" transform="translate(-21 -21)" fill="none"/>
  <g>
    <path d="M41.444,136.283A15.746,15.746,0,0,0,52.6,163.093a15.921,15.921,0,0,0,15.8-15.746V131.6H52.6A15.148,15.148,0,0,0,41.444,136.283Z" transform="translate(-21 -21)" fill="none"/>
    <path d="M147.4,131.6H131.6v15.747a15.047,15.047,0,0,0,4.7,11.118,15.631,15.631,0,0,0,22.205,0,15.568,15.568,0,0,0,.055-22.236A15.24,15.24,0,0,0,147.4,131.6Z" transform="translate(-21 -21)" fill="none"/>
    <rect x="63.2" y="63.307" width="31.6" height="31.386" fill="none"/>
    <path d="M52.6,36.907a15.44,15.44,0,0,0-11.049,4.575A14.915,14.915,0,0,0,36.8,52.653,15.827,15.827,0,0,0,52.6,68.4H68.4V52.653a15.1,15.1,0,0,0-4.7-11.064A15.206,15.206,0,0,0,52.6,36.907Z" transform="translate(-21 -21)" fill="none"/>
    <path d="M158.557,63.72a15.508,15.508,0,0,0,0-22.131A15.774,15.774,0,0,0,131.6,52.653V68.4h15.8A15.153,15.153,0,0,0,158.557,63.72Z" transform="translate(-21 -21)" fill="none"/>
    <path d="M147.4,115.693H131.6V84.307h15.8a30.311,30.311,0,0,0,22.312-9.357A30.556,30.556,0,0,0,179,52.653a30.411,30.411,0,0,0-9.34-22.348,31.3,31.3,0,0,0-44.518-.017A30.335,30.335,0,0,0,115.8,52.6V68.4H84.2V52.6a30.341,30.341,0,0,0-9.341-22.312A30.481,30.481,0,0,0,52.6,21a30.447,30.447,0,0,0-22.258,9.305A30.4,30.4,0,0,0,21,52.653,30.411,30.411,0,0,0,30.342,75a30.449,30.449,0,0,0,22.258,9.3H68.4v31.386H52.6A30.454,30.454,0,0,0,30.342,125a31.408,31.408,0,0,0,.053,44.754A30.6,30.6,0,0,0,52.6,179a30.258,30.258,0,0,0,22.313-9.4A30.53,30.53,0,0,0,84.2,147.4V131.6h31.6v15.8A31.806,31.806,0,0,0,147.4,179,31.829,31.829,0,0,0,179,147.347a31.833,31.833,0,0,0-31.6-31.654Zm-15.8-63.04A15.8,15.8,0,1,1,158.557,63.72,15.153,15.153,0,0,1,147.4,68.4H131.6ZM68.4,147.347a15.921,15.921,0,0,1-15.8,15.746,15.747,15.747,0,0,1,0-31.493H68.4Zm0-78.947H52.6A15.827,15.827,0,0,1,36.8,52.653a14.915,14.915,0,0,1,4.751-11.171A15.44,15.44,0,0,1,52.6,36.907a15.206,15.206,0,0,1,11.1,4.682,15.1,15.1,0,0,1,4.7,11.064Zm47.4,47.293H84.2V84.307h31.6Zm42.7,42.772a15.631,15.631,0,0,1-22.205,0,15.047,15.047,0,0,1-4.7-11.118V131.6h15.8a15.829,15.829,0,0,1,15.8,15.747A15.048,15.048,0,0,1,158.5,158.465Z" transform="translate(-21 -21)"/>
  </g>
</svg>
